<svg xmlns="http://www.w3.org/2000/svg" viewBox="0 0 960 470" width="960" height="470" font-family="Noto Sans CJK KR, Apple SD Gothic Neo, Malgun Gothic, sans-serif" font-size="13" fill="#1a202c">
<defs><marker id="arr" markerWidth="8" markerHeight="8" refX="6" refY="4" orient="auto"><path d="M0,0 L8,4 L0,8 z" fill="#1a202c"/></marker><marker id="arrb" markerWidth="8" markerHeight="8" refX="6" refY="4" orient="auto"><path d="M0,0 L8,4 L0,8 z" fill="#2b6cb0"/></marker></defs>
<rect width="960" height="470" fill="#ffffff"/>
<text x="40" y="28" font-size="15" font-weight="bold">3단계 지붕면 전파 (위에서 본 그림). 단위 = 1단계의 옛 면. 셀 = 0.5 m</text><rect x="60" y="70" width="220" height="132" fill="none" stroke="#1a202c" stroke-width="2"/><rect x="60" y="70" width="22" height="22" fill="#38a169" stroke="#ffffff" stroke-width="0.8"/><rect x="60" y="92" width="22" height="22" fill="#9ae6b4" stroke="#ffffff" stroke-width="0.8"/><rect x="60" y="114" width="22" height="22" fill="#9ae6b4" stroke="#ffffff" stroke-width="0.8"/><rect x="60" y="136" width="22" height="22" fill="#38a169" stroke="#ffffff" stroke-width="0.8"/><rect x="60" y="158" width="22" height="22" fill="#9ae6b4" stroke="#ffffff" stroke-width="0.8"/><rect x="60" y="180" width="22" height="22" fill="#9ae6b4" stroke="#ffffff" stroke-width="0.8"/><rect x="82" y="70" width="22" height="22" fill="#9ae6b4" stroke="#ffffff" stroke-width="0.8"/><rect x="82" y="92" width="22" height="22" fill="#38a169" stroke="#ffffff" stroke-width="0.8"/><rect x="82" y="114" width="22" height="22" fill="#9ae6b4" stroke="#ffffff" stroke-width="0.8"/><rect x="82" y="136" width="22" height="22" fill="#9ae6b4" stroke="#ffffff" stroke-width="0.8"/><rect x="82" y="158" width="22" height="22" fill="#38a169" stroke="#ffffff" stroke-width="0.8"/><rect x="82" y="180" width="22" height="22" fill="#9ae6b4" stroke="#ffffff" stroke-width="0.8"/><rect x="104" y="70" width="22" height="22" fill="#9ae6b4" stroke="#ffffff" stroke-width="0.8"/><rect x="104" y="92" width="22" height="22" fill="#9ae6b4" stroke="#ffffff" stroke-width="0.8"/><rect x="104" y="114" width="22" height="22" fill="#38a169" stroke="#ffffff" stroke-width="0.8"/><rect x="104" y="136" width="22" height="22" fill="#9ae6b4" stroke="#ffffff" stroke-width="0.8"/><rect x="104" y="158" width="22" height="22" fill="#9ae6b4" stroke="#ffffff" stroke-width="0.8"/><rect x="104" y="180" width="22" height="22" fill="#38a169" stroke="#ffffff" stroke-width="0.8"/><rect x="126" y="70" width="22" height="22" fill="#38a169" stroke="#ffffff" stroke-width="0.8"/><rect x="126" y="92" width="22" height="22" fill="#9ae6b4" stroke="#ffffff" stroke-width="0.8"/><rect x="126" y="114" width="22" height="22" fill="#9ae6b4" stroke="#ffffff" stroke-width="0.8"/><rect x="126" y="136" width="22" height="22" fill="#38a169" stroke="#ffffff" stroke-width="0.8"/><rect x="126" y="158" width="22" height="22" fill="#9ae6b4" stroke="#ffffff" stroke-width="0.8"/><rect x="126" y="180" width="22" height="22" fill="#9ae6b4" stroke="#ffffff" stroke-width="0.8"/><rect x="148" y="70" width="22" height="22" fill="#9ae6b4" stroke="#ffffff" stroke-width="0.8"/><rect x="148" y="92" width="22" height="22" fill="#38a169" stroke="#ffffff" stroke-width="0.8"/><rect x="148" y="114" width="22" height="22" fill="#9ae6b4" stroke="#ffffff" stroke-width="0.8"/><rect x="148" y="136" width="22" height="22" fill="#9ae6b4" stroke="#ffffff" stroke-width="0.8"/><rect x="148" y="158" width="22" height="22" fill="#38a169" stroke="#ffffff" stroke-width="0.8"/><rect x="148" y="180" width="22" height="22" fill="#9ae6b4" stroke="#ffffff" stroke-width="0.8"/><rect x="170" y="70" width="22" height="22" fill="#9ae6b4" stroke="#ffffff" stroke-width="0.8"/><rect x="170" y="92" width="22" height="22" fill="#9ae6b4" stroke="#ffffff" stroke-width="0.8"/><rect x="170" y="114" width="22" height="22" fill="#38a169" stroke="#ffffff" stroke-width="0.8"/><rect x="170" y="136" width="22" height="22" fill="#9ae6b4" stroke="#ffffff" stroke-width="0.8"/><rect x="170" y="158" width="22" height="22" fill="#9ae6b4" stroke="#ffffff" stroke-width="0.8"/><rect x="170" y="180" width="22" height="22" fill="#38a169" stroke="#ffffff" stroke-width="0.8"/><rect x="192" y="70" width="22" height="22" fill="#38a169" stroke="#ffffff" stroke-width="0.8"/><rect x="192" y="92" width="22" height="22" fill="#9ae6b4" stroke="#ffffff" stroke-width="0.8"/><rect x="192" y="114" width="22" height="22" fill="#9ae6b4" stroke="#ffffff" stroke-width="0.8"/><rect x="192" y="136" width="22" height="22" fill="#38a169" stroke="#ffffff" stroke-width="0.8"/><rect x="192" y="158" width="22" height="22" fill="#9ae6b4" stroke="#ffffff" stroke-width="0.8"/><rect x="192" y="180" width="22" height="22" fill="#9ae6b4" stroke="#ffffff" stroke-width="0.8"/><rect x="214" y="70" width="22" height="22" fill="#9ae6b4" stroke="#ffffff" stroke-width="0.8"/><rect x="214" y="92" width="22" height="22" fill="#38a169" stroke="#ffffff" stroke-width="0.8"/><rect x="214" y="114" width="22" height="22" fill="#9ae6b4" stroke="#ffffff" stroke-width="0.8"/><rect x="214" y="136" width="22" height="22" fill="#9ae6b4" stroke="#ffffff" stroke-width="0.8"/><rect x="214" y="158" width="22" height="22" fill="#38a169" stroke="#ffffff" stroke-width="0.8"/><rect x="214" y="180" width="22" height="22" fill="#9ae6b4" stroke="#ffffff" stroke-width="0.8"/><rect x="236" y="70" width="22" height="22" fill="#9ae6b4" stroke="#ffffff" stroke-width="0.8"/><rect x="236" y="92" width="22" height="22" fill="#9ae6b4" stroke="#ffffff" stroke-width="0.8"/><rect x="236" y="114" width="22" height="22" fill="#38a169" stroke="#ffffff" stroke-width="0.8"/><rect x="236" y="136" width="22" height="22" fill="#9ae6b4" stroke="#ffffff" stroke-width="0.8"/><rect x="236" y="158" width="22" height="22" fill="#9ae6b4" stroke="#ffffff" stroke-width="0.8"/><rect x="236" y="180" width="22" height="22" fill="#38a169" stroke="#ffffff" stroke-width="0.8"/><rect x="258" y="70" width="22" height="22" fill="#38a169" stroke="#ffffff" stroke-width="0.8"/><rect x="258" y="92" width="22" height="22" fill="#9ae6b4" stroke="#ffffff" stroke-width="0.8"/><rect x="258" y="114" width="22" height="22" fill="#9ae6b4" stroke="#ffffff" stroke-width="0.8"/><rect x="258" y="136" width="22" height="22" fill="#38a169" stroke="#ffffff" stroke-width="0.8"/><rect x="258" y="158" width="22" height="22" fill="#9ae6b4" stroke="#ffffff" stroke-width="0.8"/><rect x="258" y="180" width="22" height="22" fill="#9ae6b4" stroke="#ffffff" stroke-width="0.8"/><text x="64" y="64" font-weight="bold">면 A: 검사 셀이 녹색 다수 → 면 = 옛 것 맞음, 나머지는 전파</text><rect x="60" y="240" width="220" height="132" fill="none" stroke="#1a202c" stroke-width="2"/><rect x="60" y="240" width="22" height="22" fill="#e53e3e" stroke="#ffffff" stroke-width="0.8"/><rect x="60" y="262" width="22" height="22" fill="#e53e3e" stroke="#ffffff" stroke-width="0.8"/><rect x="60" y="284" width="22" height="22" fill="#e53e3e" stroke="#ffffff" stroke-width="0.8"/><rect x="60" y="306" width="22" height="22" fill="#e53e3e" stroke="#ffffff" stroke-width="0.8"/><rect x="60" y="328" width="22" height="22" fill="#e53e3e" stroke="#ffffff" stroke-width="0.8"/><rect x="60" y="350" width="22" height="22" fill="#e53e3e" stroke="#ffffff" stroke-width="0.8"/><rect x="82" y="240" width="22" height="22" fill="#cbd5e0" stroke="#ffffff" stroke-width="0.8"/><rect x="82" y="262" width="22" height="22" fill="#cbd5e0" stroke="#ffffff" stroke-width="0.8"/><rect x="82" y="284" width="22" height="22" fill="#cbd5e0" stroke="#ffffff" stroke-width="0.8"/><rect x="82" y="306" width="22" height="22" fill="#cbd5e0" stroke="#ffffff" stroke-width="0.8"/><rect x="82" y="328" width="22" height="22" fill="#cbd5e0" stroke="#ffffff" stroke-width="0.8"/><rect x="82" y="350" width="22" height="22" fill="#cbd5e0" stroke="#ffffff" stroke-width="0.8"/><rect x="104" y="240" width="22" height="22" fill="#cbd5e0" stroke="#ffffff" stroke-width="0.8"/><rect x="104" y="262" width="22" height="22" fill="#cbd5e0" stroke="#ffffff" stroke-width="0.8"/><rect x="104" y="284" width="22" height="22" fill="#cbd5e0" stroke="#ffffff" stroke-width="0.8"/><rect x="104" y="306" width="22" height="22" fill="#cbd5e0" stroke="#ffffff" stroke-width="0.8"/><rect x="104" y="328" width="22" height="22" fill="#cbd5e0" stroke="#ffffff" stroke-width="0.8"/><rect x="104" y="350" width="22" height="22" fill="#cbd5e0" stroke="#ffffff" stroke-width="0.8"/><rect x="126" y="240" width="22" height="22" fill="#e53e3e" stroke="#ffffff" stroke-width="0.8"/><rect x="126" y="262" width="22" height="22" fill="#e53e3e" stroke="#ffffff" stroke-width="0.8"/><rect x="126" y="284" width="22" height="22" fill="#e53e3e" stroke="#ffffff" stroke-width="0.8"/><rect x="126" y="306" width="22" height="22" fill="#e53e3e" stroke="#ffffff" stroke-width="0.8"/><rect x="126" y="328" width="22" height="22" fill="#e53e3e" stroke="#ffffff" stroke-width="0.8"/><rect x="126" y="350" width="22" height="22" fill="#e53e3e" stroke="#ffffff" stroke-width="0.8"/><rect x="148" y="240" width="22" height="22" fill="#cbd5e0" stroke="#ffffff" stroke-width="0.8"/><rect x="148" y="262" width="22" height="22" fill="#cbd5e0" stroke="#ffffff" stroke-width="0.8"/><rect x="148" y="284" width="22" height="22" fill="#cbd5e0" stroke="#ffffff" stroke-width="0.8"/><rect x="148" y="306" width="22" height="22" fill="#cbd5e0" stroke="#ffffff" stroke-width="0.8"/><rect x="148" y="328" width="22" height="22" fill="#cbd5e0" stroke="#ffffff" stroke-width="0.8"/><rect x="148" y="350" width="22" height="22" fill="#cbd5e0" stroke="#ffffff" stroke-width="0.8"/><rect x="170" y="240" width="22" height="22" fill="#cbd5e0" stroke="#ffffff" stroke-width="0.8"/><rect x="170" y="262" width="22" height="22" fill="#cbd5e0" stroke="#ffffff" stroke-width="0.8"/><rect x="170" y="284" width="22" height="22" fill="#cbd5e0" stroke="#ffffff" stroke-width="0.8"/><rect x="170" y="306" width="22" height="22" fill="#cbd5e0" stroke="#ffffff" stroke-width="0.8"/><rect x="170" y="328" width="22" height="22" fill="#cbd5e0" stroke="#ffffff" stroke-width="0.8"/><rect x="170" y="350" width="22" height="22" fill="#cbd5e0" stroke="#ffffff" stroke-width="0.8"/><rect x="192" y="240" width="22" height="22" fill="#e53e3e" stroke="#ffffff" stroke-width="0.8"/><rect x="192" y="262" width="22" height="22" fill="#e53e3e" stroke="#ffffff" stroke-width="0.8"/><rect x="192" y="284" width="22" height="22" fill="#e53e3e" stroke="#ffffff" stroke-width="0.8"/><rect x="192" y="306" width="22" height="22" fill="#e53e3e" stroke="#ffffff" stroke-width="0.8"/><rect x="192" y="328" width="22" height="22" fill="#e53e3e" stroke="#ffffff" stroke-width="0.8"/><rect x="192" y="350" width="22" height="22" fill="#e53e3e" stroke="#ffffff" stroke-width="0.8"/><rect x="214" y="240" width="22" height="22" fill="#cbd5e0" stroke="#ffffff" stroke-width="0.8"/><rect x="214" y="262" width="22" height="22" fill="#cbd5e0" stroke="#ffffff" stroke-width="0.8"/><rect x="214" y="284" width="22" height="22" fill="#cbd5e0" stroke="#ffffff" stroke-width="0.8"/><rect x="214" y="306" width="22" height="22" fill="#cbd5e0" stroke="#ffffff" stroke-width="0.8"/><rect x="214" y="328" width="22" height="22" fill="#cbd5e0" stroke="#ffffff" stroke-width="0.8"/><rect x="214" y="350" width="22" height="22" fill="#cbd5e0" stroke="#ffffff" stroke-width="0.8"/><rect x="236" y="240" width="22" height="22" fill="#cbd5e0" stroke="#ffffff" stroke-width="0.8"/><rect x="236" y="262" width="22" height="22" fill="#cbd5e0" stroke="#ffffff" stroke-width="0.8"/><rect x="236" y="284" width="22" height="22" fill="#cbd5e0" stroke="#ffffff" stroke-width="0.8"/><rect x="236" y="306" width="22" height="22" fill="#cbd5e0" stroke="#ffffff" stroke-width="0.8"/><rect x="236" y="328" width="22" height="22" fill="#cbd5e0" stroke="#ffffff" stroke-width="0.8"/><rect x="236" y="350" width="22" height="22" fill="#cbd5e0" stroke="#ffffff" stroke-width="0.8"/><rect x="258" y="240" width="22" height="22" fill="#e53e3e" stroke="#ffffff" stroke-width="0.8"/><rect x="258" y="262" width="22" height="22" fill="#e53e3e" stroke="#ffffff" stroke-width="0.8"/><rect x="258" y="284" width="22" height="22" fill="#e53e3e" stroke="#ffffff" stroke-width="0.8"/><rect x="258" y="306" width="22" height="22" fill="#e53e3e" stroke="#ffffff" stroke-width="0.8"/><rect x="258" y="328" width="22" height="22" fill="#e53e3e" stroke="#ffffff" stroke-width="0.8"/><rect x="258" y="350" width="22" height="22" fill="#e53e3e" stroke="#ffffff" stroke-width="0.8"/><text x="64" y="234" font-weight="bold">면 B: 검사 셀이 전부 빨강 → 면 = 새 것 맞음(옛 것 제거)</text><rect x="330" y="70" width="264" height="220" fill="none" stroke="#1a202c" stroke-width="2"/><rect x="330" y="70" width="22" height="22" fill="#38a169" stroke="#ffffff" stroke-width="0.8"/><rect x="330" y="92" width="22" height="22" fill="#9ae6b4" stroke="#ffffff" stroke-width="0.8"/><rect x="330" y="114" width="22" height="22" fill="#9ae6b4" stroke="#ffffff" stroke-width="0.8"/><rect x="330" y="136" width="22" height="22" fill="#38a169" stroke="#ffffff" stroke-width="0.8"/><rect x="330" y="158" width="22" height="22" fill="#9ae6b4" stroke="#ffffff" stroke-width="0.8"/><rect x="330" y="180" width="22" height="22" fill="#9ae6b4" stroke="#ffffff" stroke-width="0.8"/><rect x="330" y="202" width="22" height="22" fill="#38a169" stroke="#ffffff" stroke-width="0.8"/><rect x="330" y="224" width="22" height="22" fill="#9ae6b4" stroke="#ffffff" stroke-width="0.8"/><rect x="330" y="246" width="22" height="22" fill="#9ae6b4" stroke="#ffffff" stroke-width="0.8"/><rect x="330" y="268" width="22" height="22" fill="#38a169" stroke="#ffffff" stroke-width="0.8"/><rect x="352" y="70" width="22" height="22" fill="#38a169" stroke="#ffffff" stroke-width="0.8"/><rect x="352" y="92" width="22" height="22" fill="#9ae6b4" stroke="#ffffff" stroke-width="0.8"/><rect x="352" y="114" width="22" height="22" fill="#9ae6b4" stroke="#ffffff" stroke-width="0.8"/><rect x="352" y="136" width="22" height="22" fill="#38a169" stroke="#ffffff" stroke-width="0.8"/><rect x="352" y="158" width="22" height="22" fill="#9ae6b4" stroke="#ffffff" stroke-width="0.8"/><rect x="352" y="180" width="22" height="22" fill="#9ae6b4" stroke="#ffffff" stroke-width="0.8"/><rect x="352" y="202" width="22" height="22" fill="#38a169" stroke="#ffffff" stroke-width="0.8"/><rect x="352" y="224" width="22" height="22" fill="#9ae6b4" stroke="#ffffff" stroke-width="0.8"/><rect x="352" y="246" width="22" height="22" fill="#9ae6b4" stroke="#ffffff" stroke-width="0.8"/><rect x="352" y="268" width="22" height="22" fill="#38a169" stroke="#ffffff" stroke-width="0.8"/><rect x="374" y="70" width="22" height="22" fill="#38a169" stroke="#ffffff" stroke-width="0.8"/><rect x="374" y="92" width="22" height="22" fill="#9ae6b4" stroke="#ffffff" stroke-width="0.8"/><rect x="374" y="114" width="22" height="22" fill="#9ae6b4" stroke="#ffffff" stroke-width="0.8"/><rect x="374" y="136" width="22" height="22" fill="#38a169" stroke="#ffffff" stroke-width="0.8"/><rect x="374" y="158" width="22" height="22" fill="#9ae6b4" stroke="#ffffff" stroke-width="0.8"/><rect x="374" y="180" width="22" height="22" fill="#9ae6b4" stroke="#ffffff" stroke-width="0.8"/><rect x="374" y="202" width="22" height="22" fill="#38a169" stroke="#ffffff" stroke-width="0.8"/><rect x="374" y="224" width="22" height="22" fill="#9ae6b4" stroke="#ffffff" stroke-width="0.8"/><rect x="374" y="246" width="22" height="22" fill="#9ae6b4" stroke="#ffffff" stroke-width="0.8"/><rect x="374" y="268" width="22" height="22" fill="#38a169" stroke="#ffffff" stroke-width="0.8"/><rect x="396" y="70" width="22" height="22" fill="#38a169" stroke="#ffffff" stroke-width="0.8"/><rect x="396" y="92" width="22" height="22" fill="#9ae6b4" stroke="#ffffff" stroke-width="0.8"/><rect x="396" y="114" width="22" height="22" fill="#9ae6b4" stroke="#ffffff" stroke-width="0.8"/><rect x="396" y="136" width="22" height="22" fill="#38a169" stroke="#ffffff" stroke-width="0.8"/><rect x="396" y="158" width="22" height="22" fill="#9ae6b4" stroke="#ffffff" stroke-width="0.8"/><rect x="396" y="180" width="22" height="22" fill="#9ae6b4" stroke="#ffffff" stroke-width="0.8"/><rect x="396" y="202" width="22" height="22" fill="#38a169" stroke="#ffffff" stroke-width="0.8"/><rect x="396" y="224" width="22" height="22" fill="#9ae6b4" stroke="#ffffff" stroke-width="0.8"/><rect x="396" y="246" width="22" height="22" fill="#9ae6b4" stroke="#ffffff" stroke-width="0.8"/><rect x="396" y="268" width="22" height="22" fill="#38a169" stroke="#ffffff" stroke-width="0.8"/><rect x="418" y="70" width="22" height="22" fill="#38a169" stroke="#ffffff" stroke-width="0.8"/><rect x="418" y="92" width="22" height="22" fill="#9ae6b4" stroke="#ffffff" stroke-width="0.8"/><rect x="418" y="114" width="22" height="22" fill="#9ae6b4" stroke="#ffffff" stroke-width="0.8"/><rect x="418" y="136" width="22" height="22" fill="#38a169" stroke="#ffffff" stroke-width="0.8"/><rect x="418" y="158" width="22" height="22" fill="#9ae6b4" stroke="#ffffff" stroke-width="0.8"/><rect x="418" y="180" width="22" height="22" fill="#9ae6b4" stroke="#ffffff" stroke-width="0.8"/><rect x="418" y="202" width="22" height="22" fill="#38a169" stroke="#ffffff" stroke-width="0.8"/><rect x="418" y="224" width="22" height="22" fill="#9ae6b4" stroke="#ffffff" stroke-width="0.8"/><rect x="418" y="246" width="22" height="22" fill="#9ae6b4" stroke="#ffffff" stroke-width="0.8"/><rect x="418" y="268" width="22" height="22" fill="#38a169" stroke="#ffffff" stroke-width="0.8"/><rect x="440" y="70" width="22" height="22" fill="#38a169" stroke="#ffffff" stroke-width="0.8"/><rect x="440" y="92" width="22" height="22" fill="#9ae6b4" stroke="#ffffff" stroke-width="0.8"/><rect x="440" y="114" width="22" height="22" fill="#9ae6b4" stroke="#ffffff" stroke-width="0.8"/><rect x="440" y="136" width="22" height="22" fill="#38a169" stroke="#ffffff" stroke-width="0.8"/><rect x="440" y="158" width="22" height="22" fill="#9ae6b4" stroke="#ffffff" stroke-width="0.8"/><rect x="440" y="180" width="22" height="22" fill="#9ae6b4" stroke="#ffffff" stroke-width="0.8"/><rect x="440" y="202" width="22" height="22" fill="#38a169" stroke="#ffffff" stroke-width="0.8"/><rect x="440" y="224" width="22" height="22" fill="#9ae6b4" stroke="#ffffff" stroke-width="0.8"/><rect x="440" y="246" width="22" height="22" fill="#9ae6b4" stroke="#ffffff" stroke-width="0.8"/><rect x="440" y="268" width="22" height="22" fill="#38a169" stroke="#ffffff" stroke-width="0.8"/><rect x="462" y="70" width="22" height="22" fill="#38a169" stroke="#ffffff" stroke-width="0.8"/><rect x="462" y="92" width="22" height="22" fill="#9ae6b4" stroke="#ffffff" stroke-width="0.8"/><rect x="462" y="114" width="22" height="22" fill="#9ae6b4" stroke="#ffffff" stroke-width="0.8"/><rect x="462" y="136" width="22" height="22" fill="#38a169" stroke="#ffffff" stroke-width="0.8"/><rect x="462" y="158" width="22" height="22" fill="#9ae6b4" stroke="#ffffff" stroke-width="0.8"/><rect x="462" y="180" width="22" height="22" fill="#9ae6b4" stroke="#ffffff" stroke-width="0.8"/><rect x="462" y="202" width="22" height="22" fill="#38a169" stroke="#ffffff" stroke-width="0.8"/><rect x="462" y="224" width="22" height="22" fill="#9ae6b4" stroke="#ffffff" stroke-width="0.8"/><rect x="462" y="246" width="22" height="22" fill="#9ae6b4" stroke="#ffffff" stroke-width="0.8"/><rect x="462" y="268" width="22" height="22" fill="#38a169" stroke="#ffffff" stroke-width="0.8"/><rect x="484" y="70" width="22" height="22" fill="#38a169" stroke="#ffffff" stroke-width="0.8"/><rect x="484" y="92" width="22" height="22" fill="#9ae6b4" stroke="#ffffff" stroke-width="0.8"/><rect x="484" y="114" width="22" height="22" fill="#9ae6b4" stroke="#ffffff" stroke-width="0.8"/><rect x="484" y="136" width="22" height="22" fill="#38a169" stroke="#ffffff" stroke-width="0.8"/><rect x="484" y="158" width="22" height="22" fill="#9ae6b4" stroke="#ffffff" stroke-width="0.8"/><rect x="484" y="180" width="22" height="22" fill="#e53e3e" stroke="#ffffff" stroke-width="0.8"/><rect x="484" y="202" width="22" height="22" fill="#cbd5e0" stroke="#ffffff" stroke-width="0.8"/><rect x="484" y="224" width="22" height="22" fill="#e53e3e" stroke="#ffffff" stroke-width="0.8"/><rect x="484" y="246" width="22" height="22" fill="#cbd5e0" stroke="#ffffff" stroke-width="0.8"/><rect x="484" y="268" width="22" height="22" fill="#e53e3e" stroke="#ffffff" stroke-width="0.8"/><rect x="506" y="70" width="22" height="22" fill="#38a169" stroke="#ffffff" stroke-width="0.8"/><rect x="506" y="92" width="22" height="22" fill="#9ae6b4" stroke="#ffffff" stroke-width="0.8"/><rect x="506" y="114" width="22" height="22" fill="#9ae6b4" stroke="#ffffff" stroke-width="0.8"/><rect x="506" y="136" width="22" height="22" fill="#38a169" stroke="#ffffff" stroke-width="0.8"/><rect x="506" y="158" width="22" height="22" fill="#9ae6b4" stroke="#ffffff" stroke-width="0.8"/><rect x="506" y="180" width="22" height="22" fill="#cbd5e0" stroke="#ffffff" stroke-width="0.8"/><rect x="506" y="202" width="22" height="22" fill="#e53e3e" stroke="#ffffff" stroke-width="0.8"/><rect x="506" y="224" width="22" height="22" fill="#cbd5e0" stroke="#ffffff" stroke-width="0.8"/><rect x="506" y="246" width="22" height="22" fill="#e53e3e" stroke="#ffffff" stroke-width="0.8"/><rect x="506" y="268" width="22" height="22" fill="#cbd5e0" stroke="#ffffff" stroke-width="0.8"/><rect x="528" y="70" width="22" height="22" fill="#38a169" stroke="#ffffff" stroke-width="0.8"/><rect x="528" y="92" width="22" height="22" fill="#9ae6b4" stroke="#ffffff" stroke-width="0.8"/><rect x="528" y="114" width="22" height="22" fill="#9ae6b4" stroke="#ffffff" stroke-width="0.8"/><rect x="528" y="136" width="22" height="22" fill="#38a169" stroke="#ffffff" stroke-width="0.8"/><rect x="528" y="158" width="22" height="22" fill="#9ae6b4" stroke="#ffffff" stroke-width="0.8"/><rect x="528" y="180" width="22" height="22" fill="#e53e3e" stroke="#ffffff" stroke-width="0.8"/><rect x="528" y="202" width="22" height="22" fill="#cbd5e0" stroke="#ffffff" stroke-width="0.8"/><rect x="528" y="224" width="22" height="22" fill="#e53e3e" stroke="#ffffff" stroke-width="0.8"/><rect x="528" y="246" width="22" height="22" fill="#cbd5e0" stroke="#ffffff" stroke-width="0.8"/><rect x="528" y="268" width="22" height="22" fill="#e53e3e" stroke="#ffffff" stroke-width="0.8"/><rect x="550" y="70" width="22" height="22" fill="#38a169" stroke="#ffffff" stroke-width="0.8"/><rect x="550" y="92" width="22" height="22" fill="#9ae6b4" stroke="#ffffff" stroke-width="0.8"/><rect x="550" y="114" width="22" height="22" fill="#9ae6b4" stroke="#ffffff" stroke-width="0.8"/><rect x="550" y="136" width="22" height="22" fill="#38a169" stroke="#ffffff" stroke-width="0.8"/><rect x="550" y="158" width="22" height="22" fill="#9ae6b4" stroke="#ffffff" stroke-width="0.8"/><rect x="550" y="180" width="22" height="22" fill="#cbd5e0" stroke="#ffffff" stroke-width="0.8"/><rect x="550" y="202" width="22" height="22" fill="#e53e3e" stroke="#ffffff" stroke-width="0.8"/><rect x="550" y="224" width="22" height="22" fill="#cbd5e0" stroke="#ffffff" stroke-width="0.8"/><rect x="550" y="246" width="22" height="22" fill="#e53e3e" stroke="#ffffff" stroke-width="0.8"/><rect x="550" y="268" width="22" height="22" fill="#cbd5e0" stroke="#ffffff" stroke-width="0.8"/><rect x="572" y="70" width="22" height="22" fill="#38a169" stroke="#ffffff" stroke-width="0.8"/><rect x="572" y="92" width="22" height="22" fill="#9ae6b4" stroke="#ffffff" stroke-width="0.8"/><rect x="572" y="114" width="22" height="22" fill="#9ae6b4" stroke="#ffffff" stroke-width="0.8"/><rect x="572" y="136" width="22" height="22" fill="#38a169" stroke="#ffffff" stroke-width="0.8"/><rect x="572" y="158" width="22" height="22" fill="#9ae6b4" stroke="#ffffff" stroke-width="0.8"/><rect x="572" y="180" width="22" height="22" fill="#e53e3e" stroke="#ffffff" stroke-width="0.8"/><rect x="572" y="202" width="22" height="22" fill="#cbd5e0" stroke="#ffffff" stroke-width="0.8"/><rect x="572" y="224" width="22" height="22" fill="#e53e3e" stroke="#ffffff" stroke-width="0.8"/><rect x="572" y="246" width="22" height="22" fill="#cbd5e0" stroke="#ffffff" stroke-width="0.8"/><rect x="572" y="268" width="22" height="22" fill="#e53e3e" stroke="#ffffff" stroke-width="0.8"/><text x="334" y="64" font-weight="bold">면 C: 빨강이 모서리에 뭉침(최소 면적 이상) → 면을 나눈다</text><line x1="484" y1="180" x2="484" y2="290" stroke="#1a202c" stroke-width="3" stroke-dasharray="6 3"/><line x1="484" y1="180" x2="594" y2="180" stroke="#1a202c" stroke-width="3" stroke-dasharray="6 3"/><text x="490" y="196" font-size="12">증축</text><rect x="660" y="110" width="176" height="132" fill="none" stroke="#1a202c" stroke-width="2"/><rect x="660" y="110" width="22" height="22" fill="#cbd5e0" stroke="#ffffff" stroke-width="0.8"/><rect x="660" y="132" width="22" height="22" fill="#cbd5e0" stroke="#ffffff" stroke-width="0.8"/><rect x="660" y="154" width="22" height="22" fill="#cbd5e0" stroke="#ffffff" stroke-width="0.8"/><rect x="660" y="176" width="22" height="22" fill="#cbd5e0" stroke="#ffffff" stroke-width="0.8"/><rect x="660" y="198" width="22" height="22" fill="#cbd5e0" stroke="#ffffff" stroke-width="0.8"/><rect x="660" y="220" width="22" height="22" fill="#cbd5e0" stroke="#ffffff" stroke-width="0.8"/><rect x="682" y="110" width="22" height="22" fill="#cbd5e0" stroke="#ffffff" stroke-width="0.8"/><rect x="682" y="132" width="22" height="22" fill="#cbd5e0" stroke="#ffffff" stroke-width="0.8"/><rect x="682" y="154" width="22" height="22" fill="#cbd5e0" stroke="#ffffff" stroke-width="0.8"/><rect x="682" y="176" width="22" height="22" fill="#cbd5e0" stroke="#ffffff" stroke-width="0.8"/><rect x="682" y="198" width="22" height="22" fill="#cbd5e0" stroke="#ffffff" stroke-width="0.8"/><rect x="682" y="220" width="22" height="22" fill="#cbd5e0" stroke="#ffffff" stroke-width="0.8"/><rect x="704" y="110" width="22" height="22" fill="#cbd5e0" stroke="#ffffff" stroke-width="0.8"/><rect x="704" y="132" width="22" height="22" fill="#cbd5e0" stroke="#ffffff" stroke-width="0.8"/><rect x="704" y="154" width="22" height="22" fill="#cbd5e0" stroke="#ffffff" stroke-width="0.8"/><rect x="704" y="176" width="22" height="22" fill="#cbd5e0" stroke="#ffffff" stroke-width="0.8"/><rect x="704" y="198" width="22" height="22" fill="#cbd5e0" stroke="#ffffff" stroke-width="0.8"/><rect x="704" y="220" width="22" height="22" fill="#cbd5e0" stroke="#ffffff" stroke-width="0.8"/><rect x="726" y="110" width="22" height="22" fill="#cbd5e0" stroke="#ffffff" stroke-width="0.8"/><rect x="726" y="132" width="22" height="22" fill="#cbd5e0" stroke="#ffffff" stroke-width="0.8"/><rect x="726" y="154" width="22" height="22" fill="#cbd5e0" stroke="#ffffff" stroke-width="0.8"/><rect x="726" y="176" width="22" height="22" fill="#cbd5e0" stroke="#ffffff" stroke-width="0.8"/><rect x="726" y="198" width="22" height="22" fill="#cbd5e0" stroke="#ffffff" stroke-width="0.8"/><rect x="726" y="220" width="22" height="22" fill="#cbd5e0" stroke="#ffffff" stroke-width="0.8"/><rect x="748" y="110" width="22" height="22" fill="#cbd5e0" stroke="#ffffff" stroke-width="0.8"/><rect x="748" y="132" width="22" height="22" fill="#cbd5e0" stroke="#ffffff" stroke-width="0.8"/><rect x="748" y="154" width="22" height="22" fill="#cbd5e0" stroke="#ffffff" stroke-width="0.8"/><rect x="748" y="176" width="22" height="22" fill="#cbd5e0" stroke="#ffffff" stroke-width="0.8"/><rect x="748" y="198" width="22" height="22" fill="#cbd5e0" stroke="#ffffff" stroke-width="0.8"/><rect x="748" y="220" width="22" height="22" fill="#cbd5e0" stroke="#ffffff" stroke-width="0.8"/><rect x="770" y="110" width="22" height="22" fill="#cbd5e0" stroke="#ffffff" stroke-width="0.8"/><rect x="770" y="132" width="22" height="22" fill="#cbd5e0" stroke="#ffffff" stroke-width="0.8"/><rect x="770" y="154" width="22" height="22" fill="#cbd5e0" stroke="#ffffff" stroke-width="0.8"/><rect x="770" y="176" width="22" height="22" fill="#cbd5e0" stroke="#ffffff" stroke-width="0.8"/><rect x="770" y="198" width="22" height="22" fill="#cbd5e0" stroke="#ffffff" stroke-width="0.8"/><rect x="770" y="220" width="22" height="22" fill="#cbd5e0" stroke="#ffffff" stroke-width="0.8"/><rect x="792" y="110" width="22" height="22" fill="#cbd5e0" stroke="#ffffff" stroke-width="0.8"/><rect x="792" y="132" width="22" height="22" fill="#cbd5e0" stroke="#ffffff" stroke-width="0.8"/><rect x="792" y="154" width="22" height="22" fill="#cbd5e0" stroke="#ffffff" stroke-width="0.8"/><rect x="792" y="176" width="22" height="22" fill="#cbd5e0" stroke="#ffffff" stroke-width="0.8"/><rect x="792" y="198" width="22" height="22" fill="#cbd5e0" stroke="#ffffff" stroke-width="0.8"/><rect x="792" y="220" width="22" height="22" fill="#cbd5e0" stroke="#ffffff" stroke-width="0.8"/><rect x="814" y="110" width="22" height="22" fill="#cbd5e0" stroke="#ffffff" stroke-width="0.8"/><rect x="814" y="132" width="22" height="22" fill="#cbd5e0" stroke="#ffffff" stroke-width="0.8"/><rect x="814" y="154" width="22" height="22" fill="#cbd5e0" stroke="#ffffff" stroke-width="0.8"/><rect x="814" y="176" width="22" height="22" fill="#cbd5e0" stroke="#ffffff" stroke-width="0.8"/><rect x="814" y="198" width="22" height="22" fill="#cbd5e0" stroke="#ffffff" stroke-width="0.8"/><rect x="814" y="220" width="22" height="22" fill="#cbd5e0" stroke="#ffffff" stroke-width="0.8"/><text x="664" y="104" font-weight="bold">면 D: 수관 아래, 검사 셀 0 → 모름(자산 사용·미확인)</text><circle cx="748" cy="176" r="101.19999999999999" fill="#dd6b20" fill-opacity="0.18" stroke="#dd6b20" stroke-dasharray="4 3"/><rect x="60" y="388" width="16" height="14" fill="#38a169" stroke="#999"/><text x="82" y="400" font-size="12">검사됨: 옛 것 맞음</text><rect x="250" y="388" width="16" height="14" fill="#e53e3e" stroke="#999"/><text x="272" y="400" font-size="12">검사됨: 새 것 맞음</text><rect x="440" y="388" width="16" height="14" fill="#9ae6b4" stroke="#999"/><text x="462" y="400" font-size="12">전파됨(물려받음)</text><rect x="620" y="388" width="16" height="14" fill="#cbd5e0" stroke="#999"/><text x="642" y="400" font-size="12">검사 안 됨</text><text x="60" y="440" font-size="12">절차: 옛 면 번호로 셀을 모은다 → 검사된 셀의 검정력 가중 다수결이 면의 결론 → 검사 안 된 셀은 물려받는다 → 반대 결론이 뭉쳐 최소 면적을 넘으면 면을 나눈다 → 검사된 셀이 없으면 면은 모름.</text></svg>